# xmcd
#
# Track frame offsets: 
#        150
#        33500
#        63101
#        82421
#        103185
#        131355
#        153428
#        173709
#        193744
#        217423
#
# Disc length: 3360 seconds
#
# Revision: 0
# Processed by: cddbd v1.5.2PL0 Copyright (c) Steve Scherf et al.
# Submitted via: ExactAudioCopy v0.99pb5
#
DISCID=910d1e0a
DTITLE=John McLaughlin - Giganci Jazzu 3
DYEAR=2010
DGENRE=
TTITLE0=Django
TTITLE1=Belo Horizonte
TTITLE2=Gotta Dance
TTITLE3=Midsummer Night
TTITLE4=My Favorite Things
TTITLE5=Waltz for Debby
TTITLE6=When Love is Far Away
TTITLE7=Stella by Starlight
TTITLE8=For Jaco
TTITLE9=Someday My Princess Will Come
EXTD=
EXTT0=
EXTT1=
EXTT2=
EXTT3=
EXTT4=
EXTT5=
EXTT6=
EXTT7=
EXTT8=
EXTT9=
PLAYORDER=
